<?xml version="1.0" standalone="no"?><!DOCTYPE svg PUBLIC "-//W3C//DTD SVG 1.1//EN" "http://www.w3.org/Graphics/SVG/1.1/DTD/svg11.dtd"><svg t="1539669110860" class="icon" style="" viewBox="0 0 1024 1024" version="1.1" xmlns="http://www.w3.org/2000/svg" p-id="1974" xmlns:xlink="http://www.w3.org/1999/xlink" width="64" height="64"><defs><style type="text/css"></style></defs><path d="M512 1024c-282.304 0-512-229.696-512-512s229.696-512 512-512 512 229.696 512 512-229.696 512-512 512zM512 64C264.96 64 64 264.96 64 512c0 246.976 200.96 448 448 448 246.976 0 448-201.024 448-448 0-247.04-201.024-448-448-448z" p-id="1975" fill="#dbdbdb"></path><path d="M784 544h-544a32 32 0 0 1 0-64h544a32 32 0 0 1 0 64z" p-id="1976" fill="#dbdbdb"></path><path d="M512 816a32 32 0 0 1-32-32v-544a32 32 0 0 1 64 0v544a32 32 0 0 1-32 32z" p-id="1977" fill="#dbdbdb"></path></svg>